<svg width="32" height="32" viewBox="0 0 32 32" fill="none" xmlns="http://www.w3.org/2000/svg">
<path d="M16 -0.000488281C7.17727 -0.000488281 0 7.17678 0 15.9995C0 24.8222 7.17727 32.0003 16 32.0003C24.8227 32.0003 32 24.8222 32 15.9995C32 7.17678 24.8227 -0.000488281 16 -0.000488281ZM16 2.34688C23.5551 2.34688 29.6559 8.44437 29.6559 15.9995C29.6559 18.327 29.0766 20.5162 28.0544 22.4314C24.4399 20.1702 20.2626 18.9706 15.9992 18.9695C11.7373 18.9718 7.56186 20.1717 3.94894 22.4323C2.92679 20.5168 2.34655 18.3275 2.34655 15.9995C2.34655 8.44437 8.44485 2.34688 16 2.34688Z" fill="#A3A3A3"/>
<path d="M16.0002 17.4101C19.6059 17.4101 22.5288 14.4872 22.5288 10.8816C22.5288 7.27596 19.6059 4.35303 16.0002 4.35303C12.3946 4.35303 9.47168 7.27596 9.47168 10.8816C9.47168 14.4872 12.3946 17.4101 16.0002 17.4101Z" fill="#A3A3A3"/>
</svg>
