<svg width="16" height="16" viewBox="0 0 16 16" fill="none" xmlns="http://www.w3.org/2000/svg">
<path d="M8.08366 0.083252C3.70574 0.083252 0.166992 3.622 0.166992 7.99992C0.166992 12.3778 3.70574 15.9166 8.08366 15.9166C12.4616 15.9166 16.0003 12.3778 16.0003 7.99992C16.0003 3.622 12.4616 0.083252 8.08366 0.083252ZM8.08366 14.3333C4.59241 14.3333 1.75033 11.4912 1.75033 7.99992C1.75033 4.50867 4.59241 1.66659 8.08366 1.66659C11.5749 1.66659 14.417 4.50867 14.417 7.99992C14.417 11.4912 11.5749 14.3333 8.08366 14.3333ZM10.9257 4.04158L8.08366 6.88367L5.24158 4.04158L4.12533 5.15784L6.96741 7.99992L4.12533 10.842L5.24158 11.9583L8.08366 9.11617L10.9257 11.9583L12.042 10.842L9.19991 7.99992L12.042 5.15784L10.9257 4.04158Z" fill="white" fill-opacity="0.8"/>
</svg>
