<svg width="24" height="23" viewBox="0 0 24 23" fill="none" xmlns="http://www.w3.org/2000/svg">
<path d="M14.4322 0.49775C12.38 0.573065 10.4116 1.33063 8.83852 2.65053C7.13913 4.07724 6.01063 6.06843 5.65972 8.25938C5.30881 10.4503 5.759 12.6944 6.9278 14.5805L6.24746 15.1516L5.76128 14.5717C5.74895 14.557 5.72756 14.5553 5.71287 14.5676L0.109963 19.2687C0.0952733 19.281 0.0930072 19.3029 0.105333 19.3176L0.59151 19.8975L0.0126266 20.3832C-0.00206348 20.3955 -0.00432773 20.4174 0.00799837 20.4321L1.65813 22.399C1.67045 22.4137 1.69288 22.4154 1.70757 22.4031L2.28645 21.9174L2.77263 22.4963C2.78496 22.511 2.80738 22.5133 2.82206 22.5009L8.42445 17.7993C8.43914 17.787 8.44089 17.7651 8.42856 17.7504L7.94238 17.1715L8.62273 16.6009C10.2773 18.0795 12.4091 18.9125 14.6278 18.9473C16.8465 18.9821 19.0034 18.2164 20.7036 16.7904C22.5785 15.217 23.7517 12.9632 23.9649 10.5248C24.1782 8.08644 23.4141 5.66321 21.8407 3.7882C20.9377 2.71206 19.8009 1.85626 18.517 1.28603C17.2332 0.715796 15.836 0.446196 14.4322 0.49775ZM14.6989 3.12847C15.6737 3.11786 16.6386 3.32355 17.5243 3.73072C18.4099 4.13788 19.1943 4.73639 19.8208 5.48314C20.9447 6.82243 21.4905 8.55331 21.3382 10.295C21.1859 12.0367 20.3479 13.6466 19.0086 14.7705C17.6693 15.8943 15.9383 16.44 14.1966 16.2876C12.4549 16.1352 10.8451 15.2971 9.72127 13.9578C8.5974 12.6185 8.05159 10.8876 8.2039 9.14592C8.35621 7.4042 9.19418 5.79433 10.5335 4.67044C11.7018 3.69007 13.1739 3.14513 14.6989 3.12847ZM14.7247 4.4464C14.4358 4.44896 14.1453 4.47563 13.8553 4.52675C12.5931 4.66344 13.6101 5.87514 14.8988 5.77001C16.0223 5.80552 17.0774 6.31727 17.8009 7.17756C18.5225 8.0394 18.8433 9.16797 18.6831 10.2806C18.3883 11.1599 19.3731 12.7435 19.7266 11.5238C20.3709 9.75348 20.0217 7.77366 18.8109 6.33035C17.789 5.11255 16.2845 4.43257 14.7247 4.4464ZM10.2523 7.40932C10.0828 7.40533 9.91901 7.5531 9.81397 7.91507C9.16957 9.68557 9.5186 11.6657 10.7297 13.109C11.9408 14.5521 13.8299 15.2393 15.6852 14.9121C16.9477 14.7758 15.5595 13.5312 14.6423 13.6689C13.5188 13.6334 12.4636 13.1216 11.7401 12.2613C11.0185 11.3995 10.6973 10.2714 10.8574 9.15885C11.0875 8.27935 10.6535 7.41877 10.2523 7.40932Z" fill="#7171C0"/>
</svg>
