<svg width="24" height="18" viewBox="0 0 24 18" fill="none" xmlns="http://www.w3.org/2000/svg">
<path d="M0.695427 0.424805C0.320873 0.424805 0 0.747764 0 1.12232V16.8731C0 17.2477 0.320873 17.5686 0.695427 17.5686H1.30014C1.31519 17.5712 1.33031 17.5732 1.3455 17.5748H22.8792C22.9024 17.5739 22.9255 17.5718 22.9485 17.5686H23.303C23.6776 17.5686 24 17.2477 24 16.8731V1.12232C24 0.747764 23.6776 0.424805 23.303 0.424805H0.695427ZM1.33403 1.97465L9.33976 9.00346L1.33403 16.0307V1.97465ZM22.6665 2.15659V15.8488L14.6529 9.00293L22.6665 2.15659ZM13.626 9.87978L21.0629 16.2345H3.12629L10.3511 9.89124L11.5261 10.9229C11.6471 11.0287 11.8021 11.0874 11.9628 11.088C12.1235 11.0887 12.2791 11.0314 12.4009 10.9265L13.626 9.87978Z" fill="white"/>
</svg>
