<svg width="14" height="14" viewBox="0 0 14 14" fill="none" xmlns="http://www.w3.org/2000/svg">
<path d="M7 0.000488281C3.14009 0.000488281 0 3.14058 0 7.00049C0 10.8604 3.14009 14.0005 7 14.0005C10.8599 14.0005 14 10.8604 14 7.00049C14 3.14058 10.8599 0.000488281 7 0.000488281ZM7 1.02725C10.3053 1.02725 12.9746 3.69514 12.9746 7.00049C12.9746 10.3058 10.3053 12.9737 7 12.9737C3.69465 12.9737 1.02675 10.3058 1.02675 7.00049C1.02675 3.69514 3.69465 1.02725 7 1.02725Z" fill="white"/>
<path d="M6.86746 8.18441C6.751 8.18441 6.65905 8.14763 6.59162 8.07407C6.53032 7.99438 6.49967 7.89018 6.49967 7.76145C6.49967 7.57142 6.52113 7.39365 6.56404 7.22815C6.61307 7.05651 6.6897 6.88487 6.79391 6.71323C6.89811 6.5416 7.03604 6.36076 7.20768 6.17074C7.3364 6.02362 7.43755 5.89489 7.51111 5.78455C7.59079 5.66809 7.64596 5.55775 7.67661 5.45354C7.71339 5.34933 7.73178 5.24206 7.73178 5.13172C7.73178 5.06522 7.72383 5.00336 7.70793 4.94614C7.67547 4.82929 7.60986 4.73177 7.51111 4.65359C7.36399 4.53712 7.15557 4.47888 6.88585 4.47888C6.64066 4.47888 6.41692 4.5126 6.21463 4.58003C6.01847 4.64133 5.81925 4.73021 5.61697 4.84668C5.48211 4.92637 5.35951 4.96315 5.24917 4.95702C5.14496 4.94475 5.05914 4.9049 4.99172 4.83748C4.92428 4.77005 4.88138 4.6873 4.86299 4.58922C4.8446 4.49114 4.85993 4.39 4.90896 4.28579C4.958 4.18158 5.04688 4.08657 5.17561 4.00075C5.42694 3.83524 5.71504 3.70958 6.03993 3.62376C6.36481 3.53181 6.67131 3.48584 6.95941 3.48584C7.3456 3.48584 7.68274 3.5502 7.97085 3.67893C8.26508 3.80766 8.49189 3.98543 8.65127 4.21223C8.75161 4.34974 8.82153 4.50189 8.86104 4.66868C8.8867 4.77701 8.89953 4.89151 8.89953 5.01219C8.89953 5.20221 8.87194 5.38304 8.81677 5.55468C8.7616 5.72019 8.67272 5.88876 8.55012 6.0604C8.42752 6.22591 8.25895 6.40674 8.04441 6.6029C7.85438 6.77453 7.70113 6.93084 7.58466 7.07183C7.47433 7.21282 7.39157 7.34768 7.3364 7.4764C7.28736 7.60513 7.25365 7.74306 7.23526 7.89017C7.22913 7.97599 7.19235 8.04649 7.12492 8.10166C7.06362 8.15682 6.9778 8.18441 6.86746 8.18441ZM6.84906 10.1061C6.64064 10.1061 6.47207 10.0418 6.34334 9.91304C6.22075 9.78431 6.15945 9.61881 6.15945 9.41652C6.15945 9.22036 6.22075 9.06099 6.34334 8.93839C6.47207 8.80966 6.64064 8.7453 6.84906 8.7453C7.06361 8.7453 7.22911 8.80966 7.34558 8.93839C7.46818 9.06099 7.52948 9.22036 7.52948 9.41652C7.52948 9.61881 7.46818 9.78431 7.34558 9.91304C7.22911 10.0418 7.06361 10.1061 6.84906 10.1061Z" fill="white"/>
</svg>
