<svg width="16" height="16" viewBox="0 0 16 16" fill="none" xmlns="http://www.w3.org/2000/svg">
<path d="M12.9631 0.902832C12.7401 0.903005 12.5213 0.964308 12.3307 1.08008C12.1401 1.19585 11.9848 1.36166 11.8818 1.55949L9.0229 0.986978C8.93446 0.969272 8.8426 0.987416 8.76753 1.03742C8.69246 1.08742 8.64032 1.16519 8.62258 1.25363L7.77363 5.49266C5.99172 5.55159 4.31046 6.07977 3.07626 6.96839C2.91258 6.77454 2.70857 6.61874 2.47846 6.51186C2.24836 6.40498 1.9977 6.34959 1.74399 6.34956C1.28145 6.34956 0.837865 6.5333 0.510803 6.86036C0.183742 7.18742 2.3339e-07 7.63101 0 8.09355C0.00024425 8.45861 0.115045 8.81439 0.328217 9.11075C0.541388 9.40711 0.842185 9.6291 1.18821 9.74544C1.15682 9.92637 1.14036 10.1084 1.13892 10.2906C1.13891 10.9218 1.31912 11.5468 1.66927 12.13C2.01942 12.7132 2.53264 13.2431 3.17964 13.6894C3.82664 14.1357 4.59474 14.4898 5.44008 14.7314C6.28543 14.9729 7.19147 15.0972 8.10647 15.0972C9.02146 15.0972 9.9275 14.9729 10.7728 14.7314C11.6182 14.4898 12.3863 14.1357 13.0333 13.6894C13.6803 13.2431 14.1935 12.7132 14.5437 12.13C14.8938 11.5468 15.074 10.9218 15.074 10.2906C15.0739 10.1294 15.062 9.96822 15.0384 9.8078C15.3273 9.66278 15.5702 9.44032 15.74 9.16525C15.9098 8.89018 15.9998 8.57333 16 8.25007C16 7.78754 15.8163 7.34394 15.4892 7.01688C15.1621 6.68982 14.7186 6.50608 14.256 6.50608C13.8319 6.5065 13.4224 6.66148 13.1043 6.94202C11.8788 6.07289 10.2225 5.55535 8.46727 5.49312L9.22284 1.72098L11.7477 2.22647C11.7736 2.53101 11.9129 2.81472 12.1379 3.0215C12.363 3.22828 12.6575 3.34307 12.9631 3.34315C13.2867 3.34313 13.597 3.21457 13.8258 2.98575C14.0546 2.75693 14.1832 2.44658 14.1832 2.12299C14.1832 1.79939 14.0546 1.48905 13.8258 1.26023C13.597 1.03141 13.2867 0.902847 12.9631 0.902832ZM5.26506 8.20062C5.4253 8.20062 5.58396 8.23218 5.732 8.29349C5.88004 8.35481 6.01455 8.44469 6.12785 8.55799C6.24115 8.67129 6.33103 8.8058 6.39235 8.95384C6.45367 9.10188 6.48522 9.26055 6.48522 9.42078C6.48522 9.58101 6.45367 9.73968 6.39235 9.88772C6.33103 10.0358 6.24115 10.1703 6.12785 10.2836C6.01455 10.3969 5.88004 10.4867 5.732 10.5481C5.58396 10.6094 5.4253 10.6409 5.26506 10.6409C5.10483 10.6409 4.94617 10.6094 4.79813 10.5481C4.65009 10.4867 4.51557 10.3969 4.40227 10.2836C4.28897 10.1703 4.19909 10.0358 4.13778 9.88772C4.07646 9.73968 4.0449 9.58101 4.0449 9.42078C4.0449 9.26055 4.07646 9.10188 4.13778 8.95384C4.19909 8.8058 4.28897 8.67129 4.40227 8.55799C4.51557 8.44469 4.65009 8.35481 4.79813 8.29349C4.94617 8.23218 5.10483 8.20062 5.26506 8.20062ZM10.9479 8.2007C11.1081 8.20069 11.2668 8.23225 11.4148 8.29357C11.5628 8.35489 11.6974 8.44476 11.8107 8.55807C11.924 8.67137 12.0138 8.80588 12.0752 8.95392C12.1365 9.10196 12.168 9.26062 12.168 9.42086C12.168 9.58109 12.1365 9.73976 12.0752 9.88779C12.0138 10.0358 11.924 10.1703 11.8107 10.2836C11.6974 10.3969 11.5628 10.4868 11.4148 10.5481C11.2668 10.6095 11.1081 10.641 10.9479 10.641C10.7876 10.641 10.629 10.6095 10.4809 10.5481C10.3329 10.4868 10.1984 10.3969 10.0851 10.2836C9.97178 10.1703 9.88191 10.0358 9.82059 9.88779C9.75927 9.73976 9.72771 9.58109 9.72771 9.42086C9.72771 9.26062 9.75927 9.10196 9.82059 8.95392C9.88191 8.80588 9.97178 8.67137 10.0851 8.55807C10.1984 8.44476 10.3329 8.35489 10.4809 8.29357C10.629 8.23225 10.7876 8.20069 10.9479 8.2007ZM5.09815 12.1396C5.15387 12.1348 5.20993 12.1438 5.26133 12.1659C5.31273 12.1879 5.35791 12.2223 5.39285 12.266C5.39285 12.266 5.52924 12.4473 5.94603 12.6666C6.36282 12.886 7.03736 13.1167 8.06191 13.1167C9.08646 13.1167 9.7613 12.886 10.1781 12.6666C10.5949 12.4473 10.7312 12.266 10.7312 12.266C10.7876 12.1957 10.8695 12.1506 10.9591 12.1407C11.0035 12.1357 11.0484 12.1395 11.0914 12.1519C11.1343 12.1643 11.1743 12.185 11.2092 12.2129C11.2442 12.2408 11.2733 12.2753 11.2948 12.3145C11.3164 12.3536 11.33 12.3966 11.335 12.441C11.3399 12.4855 11.3361 12.5304 11.3236 12.5734C11.3112 12.6163 11.2904 12.6564 11.2624 12.6912C11.2624 12.6912 11.0075 12.9989 10.495 13.2687C9.9824 13.5384 9.18954 13.797 8.06191 13.797C6.93428 13.797 6.14172 13.5384 5.62916 13.2687C5.1166 12.9989 4.8616 12.6912 4.8616 12.6912C4.83367 12.6564 4.81288 12.6163 4.80043 12.5734C4.78798 12.5304 4.78412 12.4855 4.78906 12.441C4.794 12.3966 4.80764 12.3536 4.82922 12.3145C4.85079 12.2753 4.87987 12.2408 4.9148 12.2129C4.96732 12.1709 5.03113 12.1454 5.09815 12.1396Z" fill="white"/>
</svg>
