<svg width="24" height="24" viewBox="0 0 24 24" fill="none" xmlns="http://www.w3.org/2000/svg">
<path d="M14.4322 0.99775C12.38 1.07307 10.4116 1.83063 8.83852 3.15053C7.13913 4.57724 6.01063 6.56843 5.65972 8.75938C5.30881 10.9503 5.759 13.1944 6.9278 15.0805L6.24746 15.6516L5.76128 15.0717C5.74895 15.057 5.72756 15.0553 5.71287 15.0676L0.109963 19.7687C0.0952733 19.781 0.0930072 19.8029 0.105333 19.8176L0.59151 20.3975L0.0126266 20.8832C-0.00206348 20.8955 -0.00432773 20.9174 0.00799837 20.9321L1.65813 22.899C1.67045 22.9137 1.69288 22.9154 1.70757 22.9031L2.28645 22.4174L2.77263 22.9963C2.78496 23.011 2.80738 23.0133 2.82206 23.0009L8.42445 18.2993C8.43914 18.287 8.44089 18.2651 8.42856 18.2504L7.94238 17.6715L8.62273 17.1009C10.2773 18.5795 12.4091 19.4125 14.6278 19.4473C16.8465 19.4821 19.0034 18.7164 20.7036 17.2904C22.5785 15.717 23.7517 13.4632 23.9649 11.0248C24.1782 8.58644 23.4141 6.16321 21.8407 4.2882C20.9377 3.21206 19.8009 2.35626 18.517 1.78603C17.2332 1.2158 15.836 0.946196 14.4322 0.99775ZM14.6989 3.62847C15.6737 3.61786 16.6386 3.82355 17.5243 4.23072C18.4099 4.63788 19.1943 5.23639 19.8208 5.98314C20.9447 7.32243 21.4905 9.05331 21.3382 10.795C21.1859 12.5367 20.3479 14.1466 19.0086 15.2705C17.6693 16.3943 15.9383 16.94 14.1966 16.7876C12.4549 16.6352 10.8451 15.7971 9.72127 14.4578C8.5974 13.1185 8.05159 11.3876 8.2039 9.64592C8.35621 7.9042 9.19418 6.29433 10.5335 5.17044C11.7018 4.19008 13.1739 3.64513 14.6989 3.62847ZM14.7247 4.9464C14.4358 4.94896 14.1453 4.97563 13.8553 5.02675C12.5931 5.16344 13.6101 6.37514 14.8988 6.27001C16.0223 6.30552 17.0774 6.81727 17.8009 7.67756C18.5225 8.5394 18.8433 9.66797 18.6831 10.7806C18.3883 11.6599 19.3731 13.2435 19.7266 12.0238C20.3709 10.2535 20.0217 8.27366 18.8109 6.83035C17.789 5.61255 16.2845 4.93257 14.7247 4.9464ZM10.2523 7.90932C10.0828 7.90533 9.91901 8.0531 9.81397 8.41507C9.16957 10.1856 9.5186 12.1657 10.7297 13.609C11.9408 15.0521 13.8299 15.7393 15.6852 15.4121C16.9477 15.2758 15.5595 14.0312 14.6423 14.1689C13.5188 14.1334 12.4636 13.6216 11.7401 12.7613C11.0185 11.8995 10.6973 10.7714 10.8574 9.65885C11.0875 8.77935 10.6535 7.91877 10.2523 7.90932Z" fill="#D35EFC"/>
</svg>
