<svg width="16" height="14" viewBox="0 0 16 14" fill="none" xmlns="http://www.w3.org/2000/svg">
<path d="M15.5596 0.700143C14.9522 0.991628 14.3134 1.26416 13.5046 1.43409C11.7431 -0.327381 7.48624 0.112987 7.77982 4.51666C4.89498 4.31934 2.79769 2.96142 1.0793 1.04513C0.205506 2.8139 0.627269 4.28371 2.05505 5.39739C1.35046 5.4561 0.822018 5.16253 0.589881 5.01933C0.675229 7.21758 2.26055 8.09831 3.22936 8.33317C2.6422 8.4506 2.37798 8.4506 1.76147 8.33317C2.20184 9.50748 3.08257 10.535 4.84404 10.6818C3.22936 11.8561 1.63272 12.0311 0 12.0029C1.02752 12.8836 6.08568 15.1751 10.814 11.553C14.8257 8.47996 14.3853 3.63592 14.3853 3.63592C15.1095 3.14099 15.5912 2.58959 16 2.02124C15.4888 2.21911 14.9585 2.40413 14.2385 2.46161C14.8232 1.95426 15.3824 1.43276 15.5596 0.700143Z" fill="white"/>
</svg>
